# xmcd
#
# Track frame offsets: 
#        150
#        28763
#        60205
#        90994
#        115971
#        150145
#        176550
#        201689
#        223293
#
# Disc length: 3052 seconds
#
# Revision: 6
# Processed by: cddbd v1.5.2PL0 Copyright (c) Steve Scherf et al.
# Submitted via: ExactAudioCopy v0.95b4
#
DISCID=740bea09
DTITLE=Feathered Serpent - Second Meditation
DYEAR=2004
DGENRE=Jazz
TTITLE0=Second meditation
TTITLE1=Piano
TTITLE2=Domino
TTITLE3=Infant eyes
TTITLE4=Penguin dance
TTITLE5=Rain
TTITLE6=One must twist
TTITLE7=I love you
TTITLE8=Revelation (track from "Rain")
EXTD=YEAR: 2004
EXTT0=
EXTT1=
EXTT2=
EXTT3=
EXTT4=
EXTT5=
EXTT6=
EXTT7=
EXTT8=
PLAYORDER=
